<mxfile host="www.draw.io" modified="2020-01-20T03:53:07.934Z" agent="Mozilla/5.0 (Macintosh; Intel Mac OS X 10_13_2) AppleWebKit/537.36 (KHTML, like Gecko) Chrome/79.0.3945.117 Safari/537.36" etag="yNh8KRfLbUiXuaiEGwE4" version="12.5.5" type="github">
  <diagram id="XI3sdBOOUCV_RwgQY45F" name="一审流程">
    <mxGraphModel dx="1398" dy="1817" grid="1" gridSize="10" guides="1" tooltips="1" connect="1" arrows="1" fold="1" page="1" pageScale="1" pageWidth="827" pageHeight="1169" math="0" shadow="0">
      <root>
        <mxCell id="0"/>
        <mxCell id="1" parent="0"/>
        <mxCell id="Zky3TqG5APiGu4ryitzf-4" style="edgeStyle=orthogonalEdgeStyle;rounded=0;orthogonalLoop=1;jettySize=auto;html=1;exitX=1;exitY=0.25;exitDx=0;exitDy=0;entryX=0;entryY=0.25;entryDx=0;entryDy=0;fillColor=#d5e8d4;strokeColor=#82b366;strokeWidth=3;" parent="1" source="Zky3TqG5APiGu4ryitzf-2" target="Zky3TqG5APiGu4ryitzf-3" edge="1">
          <mxGeometry relative="1" as="geometry"/>
        </mxCell>
        <mxCell id="Zky3TqG5APiGu4ryitzf-5" style="edgeStyle=orthogonalEdgeStyle;rounded=0;orthogonalLoop=1;jettySize=auto;html=1;entryX=0;entryY=0.5;entryDx=0;entryDy=0;fillColor=#d5e8d4;strokeColor=#82b366;strokeWidth=3;" parent="1" source="Zky3TqG5APiGu4ryitzf-2" target="Zky3TqG5APiGu4ryitzf-3" edge="1">
          <mxGeometry relative="1" as="geometry"/>
        </mxCell>
        <mxCell id="Zky3TqG5APiGu4ryitzf-6" style="edgeStyle=orthogonalEdgeStyle;rounded=0;orthogonalLoop=1;jettySize=auto;html=1;exitX=1;exitY=0.75;exitDx=0;exitDy=0;entryX=0;entryY=0.75;entryDx=0;entryDy=0;strokeWidth=3;fillColor=#d5e8d4;strokeColor=#82b366;" parent="1" source="Zky3TqG5APiGu4ryitzf-2" target="Zky3TqG5APiGu4ryitzf-3" edge="1">
          <mxGeometry relative="1" as="geometry"/>
        </mxCell>
        <mxCell id="Zky3TqG5APiGu4ryitzf-2" value="will_submit 待提交" style="shape=ext;rounded=1;html=1;whiteSpace=wrap;" parent="1" vertex="1">
          <mxGeometry x="40" width="120" height="80" as="geometry"/>
        </mxCell>
        <mxCell id="Zky3TqG5APiGu4ryitzf-26" style="edgeStyle=orthogonalEdgeStyle;rounded=0;orthogonalLoop=1;jettySize=auto;html=1;exitX=0.75;exitY=1;exitDx=0;exitDy=0;entryX=0;entryY=0.5;entryDx=0;entryDy=0;strokeWidth=3;fillColor=#d5e8d4;strokeColor=#82b366;dashed=1;" parent="1" source="Zky3TqG5APiGu4ryitzf-3" target="Zky3TqG5APiGu4ryitzf-16" edge="1">
          <mxGeometry relative="1" as="geometry"/>
        </mxCell>
        <mxCell id="Zky3TqG5APiGu4ryitzf-27" value="跳过" style="text;html=1;align=center;verticalAlign=middle;resizable=0;points=[];labelBackgroundColor=#ffffff;" parent="Zky3TqG5APiGu4ryitzf-26" vertex="1" connectable="0">
          <mxGeometry x="-0.6585" y="1" relative="1" as="geometry">
            <mxPoint as="offset"/>
          </mxGeometry>
        </mxCell>
        <mxCell id="Zky3TqG5APiGu4ryitzf-29" style="edgeStyle=orthogonalEdgeStyle;rounded=0;orthogonalLoop=1;jettySize=auto;html=1;exitX=1;exitY=1;exitDx=0;exitDy=0;entryX=0;entryY=0.5;entryDx=0;entryDy=0;dashed=1;strokeWidth=3;dashPattern=1 1;" parent="1" source="Zky3TqG5APiGu4ryitzf-3" target="Zky3TqG5APiGu4ryitzf-28" edge="1">
          <mxGeometry relative="1" as="geometry"/>
        </mxCell>
        <mxCell id="Zky3TqG5APiGu4ryitzf-33" style="edgeStyle=orthogonalEdgeStyle;rounded=0;orthogonalLoop=1;jettySize=auto;html=1;exitX=0.25;exitY=1;exitDx=0;exitDy=0;entryX=0.25;entryY=0;entryDx=0;entryDy=0;strokeWidth=3;fillColor=#f8cecc;strokeColor=#b85450;" parent="1" source="Zky3TqG5APiGu4ryitzf-3" target="Zky3TqG5APiGu4ryitzf-7" edge="1">
          <mxGeometry relative="1" as="geometry">
            <Array as="points">
              <mxPoint x="270" y="100"/>
              <mxPoint x="150" y="100"/>
              <mxPoint x="150" y="270"/>
              <mxPoint x="270" y="270"/>
            </Array>
          </mxGeometry>
        </mxCell>
        <mxCell id="Zky3TqG5APiGu4ryitzf-34" style="edgeStyle=orthogonalEdgeStyle;rounded=0;orthogonalLoop=1;jettySize=auto;html=1;exitX=1;exitY=0.75;exitDx=0;exitDy=0;entryX=0.25;entryY=0;entryDx=0;entryDy=0;strokeWidth=3;fillColor=#e1d5e7;strokeColor=#9673a6;" parent="1" source="Zky3TqG5APiGu4ryitzf-3" target="Zky3TqG5APiGu4ryitzf-9" edge="1">
          <mxGeometry relative="1" as="geometry">
            <Array as="points">
              <mxPoint x="500" y="60"/>
              <mxPoint x="500" y="450"/>
              <mxPoint x="270" y="450"/>
            </Array>
          </mxGeometry>
        </mxCell>
        <mxCell id="Zky3TqG5APiGu4ryitzf-35" style="edgeStyle=orthogonalEdgeStyle;rounded=0;orthogonalLoop=1;jettySize=auto;html=1;strokeWidth=3;entryX=0.25;entryY=0;entryDx=0;entryDy=0;fillColor=#ffe6cc;strokeColor=#d79b00;exitX=1;exitY=0.5;exitDx=0;exitDy=0;" parent="1" source="Zky3TqG5APiGu4ryitzf-3" target="Zky3TqG5APiGu4ryitzf-8" edge="1">
          <mxGeometry relative="1" as="geometry">
            <mxPoint x="120" y="470" as="targetPoint"/>
            <Array as="points">
              <mxPoint x="520" y="40"/>
              <mxPoint x="520" y="400"/>
              <mxPoint x="70" y="400"/>
            </Array>
          </mxGeometry>
        </mxCell>
        <mxCell id="Zky3TqG5APiGu4ryitzf-38" style="edgeStyle=orthogonalEdgeStyle;rounded=0;orthogonalLoop=1;jettySize=auto;html=1;exitX=0.25;exitY=0;exitDx=0;exitDy=0;entryX=0;entryY=0;entryDx=0;entryDy=0;strokeWidth=3;fillColor=#d5e8d4;strokeColor=#82b366;" parent="1" source="Zky3TqG5APiGu4ryitzf-3" target="Zky3TqG5APiGu4ryitzf-18" edge="1">
          <mxGeometry relative="1" as="geometry">
            <Array as="points">
              <mxPoint x="270" y="-30"/>
              <mxPoint x="1140" y="-30"/>
            </Array>
          </mxGeometry>
        </mxCell>
        <mxCell id="Zky3TqG5APiGu4ryitzf-3" value="submit 提交" style="shape=ext;rounded=1;html=1;whiteSpace=wrap;" parent="1" vertex="1">
          <mxGeometry x="240" width="120" height="80" as="geometry"/>
        </mxCell>
        <mxCell id="Zky3TqG5APiGu4ryitzf-10" style="edgeStyle=orthogonalEdgeStyle;rounded=0;orthogonalLoop=1;jettySize=auto;html=1;fillColor=#ffe6cc;strokeColor=#d79b00;strokeWidth=3;entryX=0;entryY=0;entryDx=0;entryDy=0;" parent="1" source="Zky3TqG5APiGu4ryitzf-7" target="Zky3TqG5APiGu4ryitzf-8" edge="1">
          <mxGeometry relative="1" as="geometry"/>
        </mxCell>
        <mxCell id="Zky3TqG5APiGu4ryitzf-11" style="edgeStyle=orthogonalEdgeStyle;rounded=0;orthogonalLoop=1;jettySize=auto;html=1;fillColor=#e1d5e7;strokeColor=#9673a6;strokeWidth=3;entryX=0;entryY=0;entryDx=0;entryDy=0;" parent="1" source="Zky3TqG5APiGu4ryitzf-7" target="Zky3TqG5APiGu4ryitzf-9" edge="1">
          <mxGeometry relative="1" as="geometry"/>
        </mxCell>
        <mxCell id="Zky3TqG5APiGu4ryitzf-13" style="edgeStyle=orthogonalEdgeStyle;rounded=0;orthogonalLoop=1;jettySize=auto;html=1;strokeWidth=3;entryX=0;entryY=0.5;entryDx=0;entryDy=0;fillColor=#d5e8d4;strokeColor=#82b366;dashed=1;" parent="1" source="Zky3TqG5APiGu4ryitzf-7" target="Zky3TqG5APiGu4ryitzf-16" edge="1">
          <mxGeometry relative="1" as="geometry">
            <mxPoint x="445" y="360" as="targetPoint"/>
          </mxGeometry>
        </mxCell>
        <mxCell id="Zky3TqG5APiGu4ryitzf-14" value="跳过" style="text;html=1;align=center;verticalAlign=middle;resizable=0;points=[];labelBackgroundColor=#ffffff;" parent="Zky3TqG5APiGu4ryitzf-13" vertex="1" connectable="0">
          <mxGeometry x="-0.2606" y="2" relative="1" as="geometry">
            <mxPoint as="offset"/>
          </mxGeometry>
        </mxCell>
        <mxCell id="Zky3TqG5APiGu4ryitzf-22" style="edgeStyle=orthogonalEdgeStyle;rounded=0;orthogonalLoop=1;jettySize=auto;html=1;entryX=0;entryY=0.5;entryDx=0;entryDy=0;strokeWidth=3;fillColor=#d5e8d4;strokeColor=#82b366;dashed=1;" parent="1" source="Zky3TqG5APiGu4ryitzf-7" target="Zky3TqG5APiGu4ryitzf-21" edge="1">
          <mxGeometry relative="1" as="geometry">
            <Array as="points">
              <mxPoint x="300" y="250"/>
              <mxPoint x="170" y="250"/>
              <mxPoint x="170" y="185"/>
            </Array>
          </mxGeometry>
        </mxCell>
        <mxCell id="Zky3TqG5APiGu4ryitzf-23" value="提交" style="text;html=1;align=center;verticalAlign=middle;resizable=0;points=[];labelBackgroundColor=#ffffff;" parent="Zky3TqG5APiGu4ryitzf-22" vertex="1" connectable="0">
          <mxGeometry x="0.072" y="1" relative="1" as="geometry">
            <mxPoint as="offset"/>
          </mxGeometry>
        </mxCell>
        <mxCell id="Zky3TqG5APiGu4ryitzf-7" value="pre_filing_currection 预立案补正" style="shape=ext;rounded=1;html=1;whiteSpace=wrap;" parent="1" vertex="1">
          <mxGeometry x="240" y="290" width="120" height="80" as="geometry"/>
        </mxCell>
        <mxCell id="Zky3TqG5APiGu4ryitzf-8" value="cancel_apply 撤销申请" style="shape=ext;rounded=1;html=1;whiteSpace=wrap;" parent="1" vertex="1">
          <mxGeometry x="40" y="490" width="120" height="80" as="geometry"/>
        </mxCell>
        <mxCell id="Zky3TqG5APiGu4ryitzf-9" value="return 退回" style="shape=ext;rounded=1;html=1;whiteSpace=wrap;" parent="1" vertex="1">
          <mxGeometry x="240" y="490" width="120" height="80" as="geometry"/>
        </mxCell>
        <mxCell id="Zky3TqG5APiGu4ryitzf-19" style="edgeStyle=orthogonalEdgeStyle;rounded=0;orthogonalLoop=1;jettySize=auto;html=1;entryX=0.5;entryY=1;entryDx=0;entryDy=0;strokeWidth=3;dashed=1;fillColor=#dae8fc;strokeColor=#6c8ebf;" parent="1" source="Zky3TqG5APiGu4ryitzf-16" target="Zky3TqG5APiGu4ryitzf-17" edge="1">
          <mxGeometry relative="1" as="geometry"/>
        </mxCell>
        <mxCell id="Zky3TqG5APiGu4ryitzf-20" style="edgeStyle=orthogonalEdgeStyle;rounded=0;orthogonalLoop=1;jettySize=auto;html=1;strokeWidth=3;fillColor=#dae8fc;strokeColor=#6c8ebf;dashed=1;exitX=0.5;exitY=1;exitDx=0;exitDy=0;" parent="1" source="Zky3TqG5APiGu4ryitzf-16" target="Zky3TqG5APiGu4ryitzf-18" edge="1">
          <mxGeometry relative="1" as="geometry"/>
        </mxCell>
        <mxCell id="Zky3TqG5APiGu4ryitzf-16" value="" style="shape=mxgraph.bpmn.shape;html=1;verticalLabelPosition=bottom;labelBackgroundColor=#ffffff;verticalAlign=top;align=center;perimeter=rhombusPerimeter;background=gateway;outlineConnect=0;outline=none;symbol=exclusiveGw;" parent="1" vertex="1">
          <mxGeometry x="430" y="200" width="50" height="50" as="geometry"/>
        </mxCell>
        <mxCell id="Zky3TqG5APiGu4ryitzf-39" style="edgeStyle=orthogonalEdgeStyle;rounded=0;orthogonalLoop=1;jettySize=auto;html=1;exitX=0;exitY=1;exitDx=0;exitDy=0;strokeWidth=3;entryX=0.5;entryY=0;entryDx=0;entryDy=0;fillColor=#ffe6cc;strokeColor=#d79b00;" parent="1" source="Zky3TqG5APiGu4ryitzf-17" target="Zky3TqG5APiGu4ryitzf-8" edge="1">
          <mxGeometry relative="1" as="geometry">
            <mxPoint x="160" y="450" as="targetPoint"/>
            <Array as="points">
              <mxPoint x="540" y="80"/>
              <mxPoint x="540" y="380"/>
              <mxPoint x="100" y="380"/>
            </Array>
          </mxGeometry>
        </mxCell>
        <mxCell id="Zky3TqG5APiGu4ryitzf-40" style="edgeStyle=orthogonalEdgeStyle;rounded=0;orthogonalLoop=1;jettySize=auto;html=1;exitX=0;exitY=0.75;exitDx=0;exitDy=0;strokeWidth=3;entryX=0.5;entryY=0;entryDx=0;entryDy=0;fillColor=#e1d5e7;strokeColor=#9673a6;" parent="1" source="Zky3TqG5APiGu4ryitzf-17" target="Zky3TqG5APiGu4ryitzf-9" edge="1">
          <mxGeometry relative="1" as="geometry">
            <mxPoint x="350" y="440" as="targetPoint"/>
            <Array as="points">
              <mxPoint x="560" y="60"/>
              <mxPoint x="560" y="460"/>
              <mxPoint x="300" y="460"/>
            </Array>
          </mxGeometry>
        </mxCell>
        <mxCell id="Zky3TqG5APiGu4ryitzf-42" style="edgeStyle=orthogonalEdgeStyle;rounded=0;orthogonalLoop=1;jettySize=auto;html=1;exitX=0.75;exitY=1;exitDx=0;exitDy=0;entryX=0;entryY=0;entryDx=0;entryDy=0;strokeWidth=3;fillColor=#f9f7ed;strokeColor=#66FFFF;" parent="1" source="Zky3TqG5APiGu4ryitzf-17" target="Zky3TqG5APiGu4ryitzf-41" edge="1">
          <mxGeometry relative="1" as="geometry">
            <Array as="points">
              <mxPoint x="680" y="290"/>
              <mxPoint x="480" y="290"/>
            </Array>
          </mxGeometry>
        </mxCell>
        <mxCell id="Zky3TqG5APiGu4ryitzf-44" style="edgeStyle=orthogonalEdgeStyle;rounded=0;orthogonalLoop=1;jettySize=auto;html=1;exitX=1;exitY=0.25;exitDx=0;exitDy=0;entryX=0;entryY=0.25;entryDx=0;entryDy=0;strokeColor=#82b366;strokeWidth=3;fillColor=#d5e8d4;" parent="1" source="Zky3TqG5APiGu4ryitzf-17" target="Zky3TqG5APiGu4ryitzf-43" edge="1">
          <mxGeometry relative="1" as="geometry"/>
        </mxCell>
        <mxCell id="Zky3TqG5APiGu4ryitzf-51" value="退回补正" style="text;html=1;align=center;verticalAlign=middle;resizable=0;points=[];labelBackgroundColor=#ffffff;" parent="Zky3TqG5APiGu4ryitzf-44" vertex="1" connectable="0">
          <mxGeometry x="-0.2308" y="-3" relative="1" as="geometry">
            <mxPoint as="offset"/>
          </mxGeometry>
        </mxCell>
        <mxCell id="Zky3TqG5APiGu4ryitzf-46" style="edgeStyle=orthogonalEdgeStyle;rounded=0;orthogonalLoop=1;jettySize=auto;html=1;strokeColor=#9999FF;strokeWidth=3;entryX=0;entryY=0;entryDx=0;entryDy=0;exitX=0.983;exitY=0.925;exitDx=0;exitDy=0;exitPerimeter=0;" parent="1" source="Zky3TqG5APiGu4ryitzf-17" target="Zky3TqG5APiGu4ryitzf-45" edge="1">
          <mxGeometry relative="1" as="geometry">
            <mxPoint x="760" y="270" as="targetPoint"/>
            <Array as="points">
              <mxPoint x="720" y="74"/>
            </Array>
          </mxGeometry>
        </mxCell>
        <mxCell id="Zky3TqG5APiGu4ryitzf-49" style="edgeStyle=orthogonalEdgeStyle;rounded=0;orthogonalLoop=1;jettySize=auto;html=1;strokeColor=#82b366;strokeWidth=3;fillColor=#d5e8d4;exitX=0.75;exitY=0;exitDx=0;exitDy=0;entryX=0;entryY=0.25;entryDx=0;entryDy=0;" parent="1" source="Zky3TqG5APiGu4ryitzf-17" target="Zky3TqG5APiGu4ryitzf-18" edge="1">
          <mxGeometry relative="1" as="geometry">
            <mxPoint x="1140" y="11" as="targetPoint"/>
            <Array as="points">
              <mxPoint x="680" y="-10"/>
              <mxPoint x="1070" y="-10"/>
              <mxPoint x="1070" y="20"/>
            </Array>
          </mxGeometry>
        </mxCell>
        <mxCell id="Zky3TqG5APiGu4ryitzf-53" value="立案中" style="text;html=1;align=center;verticalAlign=middle;resizable=0;points=[];labelBackgroundColor=#ffffff;" parent="Zky3TqG5APiGu4ryitzf-49" vertex="1" connectable="0">
          <mxGeometry x="0.24" y="-2" relative="1" as="geometry">
            <mxPoint as="offset"/>
          </mxGeometry>
        </mxCell>
        <mxCell id="Zky3TqG5APiGu4ryitzf-17" value="audit 立案审核" style="shape=ext;rounded=1;html=1;whiteSpace=wrap;" parent="1" vertex="1">
          <mxGeometry x="590" width="120" height="80" as="geometry"/>
        </mxCell>
        <mxCell id="Zky3TqG5APiGu4ryitzf-74" style="edgeStyle=orthogonalEdgeStyle;rounded=0;orthogonalLoop=1;jettySize=auto;html=1;exitX=0;exitY=0.75;exitDx=0;exitDy=0;entryX=0;entryY=0.5;entryDx=0;entryDy=0;dashed=1;strokeColor=#82b366;strokeWidth=3;fillColor=#d5e8d4;" parent="1" source="Zky3TqG5APiGu4ryitzf-18" target="Zky3TqG5APiGu4ryitzf-68" edge="1">
          <mxGeometry relative="1" as="geometry">
            <Array as="points">
              <mxPoint x="1070" y="60"/>
              <mxPoint x="1070" y="165"/>
            </Array>
          </mxGeometry>
        </mxCell>
        <mxCell id="Zky3TqG5APiGu4ryitzf-75" style="edgeStyle=orthogonalEdgeStyle;rounded=0;orthogonalLoop=1;jettySize=auto;html=1;exitX=0.25;exitY=1;exitDx=0;exitDy=0;entryX=0.5;entryY=0;entryDx=0;entryDy=0;strokeColor=#9999FF;strokeWidth=3;" parent="1" source="Zky3TqG5APiGu4ryitzf-18" target="Zky3TqG5APiGu4ryitzf-45" edge="1">
          <mxGeometry relative="1" as="geometry">
            <Array as="points">
              <mxPoint x="1170" y="310"/>
              <mxPoint x="780" y="310"/>
            </Array>
          </mxGeometry>
        </mxCell>
        <mxCell id="Zky3TqG5APiGu4ryitzf-76" style="edgeStyle=orthogonalEdgeStyle;rounded=0;orthogonalLoop=1;jettySize=auto;html=1;exitX=0.75;exitY=0;exitDx=0;exitDy=0;strokeColor=#000000;strokeWidth=3;entryX=1;entryY=0;entryDx=0;entryDy=0;" parent="1" source="Zky3TqG5APiGu4ryitzf-18" target="Zky3TqG5APiGu4ryitzf-18" edge="1">
          <mxGeometry relative="1" as="geometry">
            <mxPoint x="1260" y="-60" as="targetPoint"/>
            <Array as="points">
              <mxPoint x="1230" y="-40"/>
              <mxPoint x="1280" y="-40"/>
              <mxPoint x="1280"/>
            </Array>
          </mxGeometry>
        </mxCell>
        <mxCell id="Zky3TqG5APiGu4ryitzf-18" value="register_ing 立案中" style="shape=ext;rounded=1;html=1;whiteSpace=wrap;" parent="1" vertex="1">
          <mxGeometry x="1140" width="120" height="80" as="geometry"/>
        </mxCell>
        <mxCell id="Zky3TqG5APiGu4ryitzf-24" style="edgeStyle=orthogonalEdgeStyle;rounded=0;orthogonalLoop=1;jettySize=auto;html=1;entryX=0.5;entryY=1;entryDx=0;entryDy=0;strokeWidth=3;exitX=0.5;exitY=0;exitDx=0;exitDy=0;fillColor=#dae8fc;strokeColor=#6c8ebf;dashed=1;" parent="1" source="Zky3TqG5APiGu4ryitzf-21" target="Zky3TqG5APiGu4ryitzf-3" edge="1">
          <mxGeometry relative="1" as="geometry"/>
        </mxCell>
        <mxCell id="Zky3TqG5APiGu4ryitzf-25" style="edgeStyle=orthogonalEdgeStyle;rounded=0;orthogonalLoop=1;jettySize=auto;html=1;entryX=0.25;entryY=1;entryDx=0;entryDy=0;strokeWidth=3;dashed=1;fillColor=#dae8fc;strokeColor=#6c8ebf;" parent="1" source="Zky3TqG5APiGu4ryitzf-21" target="Zky3TqG5APiGu4ryitzf-17" edge="1">
          <mxGeometry relative="1" as="geometry"/>
        </mxCell>
        <mxCell id="Zky3TqG5APiGu4ryitzf-21" value="" style="shape=mxgraph.bpmn.shape;html=1;verticalLabelPosition=bottom;labelBackgroundColor=#ffffff;verticalAlign=top;align=center;perimeter=rhombusPerimeter;background=gateway;outlineConnect=0;outline=none;symbol=exclusiveGw;" parent="1" vertex="1">
          <mxGeometry x="200" y="160" width="50" height="50" as="geometry"/>
        </mxCell>
        <mxCell id="Zky3TqG5APiGu4ryitzf-30" style="edgeStyle=orthogonalEdgeStyle;rounded=0;orthogonalLoop=1;jettySize=auto;html=1;entryX=0.5;entryY=0;entryDx=0;entryDy=0;dashed=1;dashPattern=1 1;strokeWidth=3;" parent="1" source="Zky3TqG5APiGu4ryitzf-28" target="Zky3TqG5APiGu4ryitzf-16" edge="1">
          <mxGeometry relative="1" as="geometry"/>
        </mxCell>
        <mxCell id="Zky3TqG5APiGu4ryitzf-28" value="" style="shape=mxgraph.bpmn.shape;html=1;verticalLabelPosition=bottom;labelBackgroundColor=#ffffff;verticalAlign=top;align=center;perimeter=ellipsePerimeter;outlineConnect=0;outline=standard;symbol=timer;" parent="1" vertex="1">
          <mxGeometry x="430" y="110" width="50" height="50" as="geometry"/>
        </mxCell>
        <mxCell id="Zky3TqG5APiGu4ryitzf-41" value="not_accepted 不予受理" style="shape=ext;rounded=1;html=1;whiteSpace=wrap;" parent="1" vertex="1">
          <mxGeometry x="480" y="490" width="120" height="80" as="geometry"/>
        </mxCell>
        <mxCell id="Zky3TqG5APiGu4ryitzf-55" style="edgeStyle=orthogonalEdgeStyle;rounded=0;orthogonalLoop=1;jettySize=auto;html=1;exitX=0;exitY=0.75;exitDx=0;exitDy=0;strokeColor=#000000;strokeWidth=3;dashed=1;dashPattern=1 1;" parent="1" source="Zky3TqG5APiGu4ryitzf-43" target="Zky3TqG5APiGu4ryitzf-54" edge="1">
          <mxGeometry relative="1" as="geometry">
            <Array as="points">
              <mxPoint x="800" y="60"/>
              <mxPoint x="800" y="100"/>
              <mxPoint x="835" y="100"/>
            </Array>
          </mxGeometry>
        </mxCell>
        <mxCell id="Zky3TqG5APiGu4ryitzf-57" value="补正定时器" style="text;html=1;align=center;verticalAlign=middle;resizable=0;points=[];labelBackgroundColor=#ffffff;" parent="Zky3TqG5APiGu4ryitzf-55" vertex="1" connectable="0">
          <mxGeometry x="-0.1355" y="-2" relative="1" as="geometry">
            <mxPoint as="offset"/>
          </mxGeometry>
        </mxCell>
        <mxCell id="Zky3TqG5APiGu4ryitzf-58" style="edgeStyle=orthogonalEdgeStyle;rounded=0;orthogonalLoop=1;jettySize=auto;html=1;exitX=0;exitY=0.5;exitDx=0;exitDy=0;entryX=1;entryY=0.5;entryDx=0;entryDy=0;strokeColor=#B85450;strokeWidth=3;fillColor=#a0522d;" parent="1" source="Zky3TqG5APiGu4ryitzf-43" target="Zky3TqG5APiGu4ryitzf-17" edge="1">
          <mxGeometry relative="1" as="geometry"/>
        </mxCell>
        <mxCell id="Zky3TqG5APiGu4ryitzf-59" value="补正" style="text;html=1;align=center;verticalAlign=middle;resizable=0;points=[];labelBackgroundColor=#ffffff;" parent="Zky3TqG5APiGu4ryitzf-58" vertex="1" connectable="0">
          <mxGeometry x="0.2462" y="1" relative="1" as="geometry">
            <mxPoint as="offset"/>
          </mxGeometry>
        </mxCell>
        <mxCell id="Zky3TqG5APiGu4ryitzf-60" style="edgeStyle=orthogonalEdgeStyle;rounded=0;orthogonalLoop=1;jettySize=auto;html=1;exitX=0.25;exitY=1;exitDx=0;exitDy=0;strokeColor=#d79b00;strokeWidth=3;fillColor=#ffe6cc;" parent="1" source="Zky3TqG5APiGu4ryitzf-43" edge="1">
          <mxGeometry relative="1" as="geometry">
            <mxPoint x="130" y="480" as="targetPoint"/>
            <Array as="points">
              <mxPoint x="870" y="440"/>
              <mxPoint x="130" y="440"/>
            </Array>
          </mxGeometry>
        </mxCell>
        <mxCell id="Zky3TqG5APiGu4ryitzf-61" style="edgeStyle=orthogonalEdgeStyle;rounded=0;orthogonalLoop=1;jettySize=auto;html=1;entryX=1;entryY=0;entryDx=0;entryDy=0;strokeColor=#9673a6;strokeWidth=3;fillColor=#e1d5e7;" parent="1" source="Zky3TqG5APiGu4ryitzf-43" target="Zky3TqG5APiGu4ryitzf-9" edge="1">
          <mxGeometry relative="1" as="geometry">
            <Array as="points">
              <mxPoint x="900" y="370"/>
              <mxPoint x="360" y="370"/>
            </Array>
          </mxGeometry>
        </mxCell>
        <mxCell id="Zky3TqG5APiGu4ryitzf-62" style="edgeStyle=orthogonalEdgeStyle;rounded=0;orthogonalLoop=1;jettySize=auto;html=1;exitX=1;exitY=1;exitDx=0;exitDy=0;entryX=0.25;entryY=0;entryDx=0;entryDy=0;strokeColor=#9999FF;strokeWidth=3;" parent="1" source="Zky3TqG5APiGu4ryitzf-43" target="Zky3TqG5APiGu4ryitzf-45" edge="1">
          <mxGeometry relative="1" as="geometry"/>
        </mxCell>
        <mxCell id="Zky3TqG5APiGu4ryitzf-63" style="edgeStyle=orthogonalEdgeStyle;rounded=0;orthogonalLoop=1;jettySize=auto;html=1;exitX=0.75;exitY=1;exitDx=0;exitDy=0;entryX=0.25;entryY=0;entryDx=0;entryDy=0;strokeColor=#66FFFF;strokeWidth=3;" parent="1" source="Zky3TqG5APiGu4ryitzf-43" target="Zky3TqG5APiGu4ryitzf-41" edge="1">
          <mxGeometry relative="1" as="geometry">
            <Array as="points">
              <mxPoint x="930" y="470"/>
              <mxPoint x="510" y="470"/>
            </Array>
          </mxGeometry>
        </mxCell>
        <mxCell id="Zky3TqG5APiGu4ryitzf-64" style="edgeStyle=orthogonalEdgeStyle;rounded=0;orthogonalLoop=1;jettySize=auto;html=1;exitX=1;exitY=0.25;exitDx=0;exitDy=0;entryX=0;entryY=0.5;entryDx=0;entryDy=0;strokeColor=#82b366;strokeWidth=3;fillColor=#d5e8d4;" parent="1" source="Zky3TqG5APiGu4ryitzf-43" target="Zky3TqG5APiGu4ryitzf-18" edge="1">
          <mxGeometry relative="1" as="geometry"/>
        </mxCell>
        <mxCell id="Zky3TqG5APiGu4ryitzf-65" value="立案中" style="text;html=1;align=center;verticalAlign=middle;resizable=0;points=[];labelBackgroundColor=#ffffff;" parent="Zky3TqG5APiGu4ryitzf-64" vertex="1" connectable="0">
          <mxGeometry x="-0.56" y="-4" relative="1" as="geometry">
            <mxPoint as="offset"/>
          </mxGeometry>
        </mxCell>
        <mxCell id="Zky3TqG5APiGu4ryitzf-69" style="edgeStyle=orthogonalEdgeStyle;rounded=0;orthogonalLoop=1;jettySize=auto;html=1;entryX=0;entryY=0.5;entryDx=0;entryDy=0;strokeColor=#82b366;strokeWidth=3;fillColor=#d5e8d4;dashed=1;" parent="1" source="Zky3TqG5APiGu4ryitzf-43" target="Zky3TqG5APiGu4ryitzf-68" edge="1">
          <mxGeometry relative="1" as="geometry"/>
        </mxCell>
        <mxCell id="Zky3TqG5APiGu4ryitzf-73" value="立案" style="text;html=1;align=center;verticalAlign=middle;resizable=0;points=[];labelBackgroundColor=#ffffff;" parent="Zky3TqG5APiGu4ryitzf-69" vertex="1" connectable="0">
          <mxGeometry x="0.0473" y="-1" relative="1" as="geometry">
            <mxPoint as="offset"/>
          </mxGeometry>
        </mxCell>
        <mxCell id="Zky3TqG5APiGu4ryitzf-43" value="correction 退回补正" style="shape=ext;rounded=1;html=1;whiteSpace=wrap;" parent="1" vertex="1">
          <mxGeometry x="840" width="120" height="80" as="geometry"/>
        </mxCell>
        <mxCell id="Zky3TqG5APiGu4ryitzf-45" value="turn_offline 转线下" style="shape=ext;rounded=1;html=1;whiteSpace=wrap;" parent="1" vertex="1">
          <mxGeometry x="720" y="490" width="120" height="80" as="geometry"/>
        </mxCell>
        <mxCell id="Zky3TqG5APiGu4ryitzf-56" style="edgeStyle=orthogonalEdgeStyle;rounded=0;orthogonalLoop=1;jettySize=auto;html=1;entryX=0.75;entryY=0;entryDx=0;entryDy=0;strokeColor=#9673a6;strokeWidth=3;fillColor=#e1d5e7;" parent="1" source="Zky3TqG5APiGu4ryitzf-54" target="Zky3TqG5APiGu4ryitzf-9" edge="1">
          <mxGeometry relative="1" as="geometry">
            <Array as="points">
              <mxPoint x="835" y="420"/>
              <mxPoint x="330" y="420"/>
            </Array>
          </mxGeometry>
        </mxCell>
        <mxCell id="Zky3TqG5APiGu4ryitzf-54" value="" style="shape=mxgraph.bpmn.shape;html=1;verticalLabelPosition=bottom;labelBackgroundColor=#ffffff;verticalAlign=top;align=center;perimeter=ellipsePerimeter;outlineConnect=0;outline=standard;symbol=timer;" parent="1" vertex="1">
          <mxGeometry x="810" y="120" width="50" height="50" as="geometry"/>
        </mxCell>
        <mxCell id="Zky3TqG5APiGu4ryitzf-66" value="cased 已立案" style="shape=ext;rounded=1;html=1;whiteSpace=wrap;fillColor=#f5f5f5;strokeColor=#666666;fontColor=#333333;" parent="1" vertex="1">
          <mxGeometry x="1360" width="120" height="80" as="geometry"/>
        </mxCell>
        <mxCell id="Zky3TqG5APiGu4ryitzf-70" style="edgeStyle=orthogonalEdgeStyle;rounded=0;orthogonalLoop=1;jettySize=auto;html=1;entryX=0;entryY=0.25;entryDx=0;entryDy=0;strokeColor=#6c8ebf;strokeWidth=3;fillColor=#dae8fc;dashed=1;" parent="1" source="Zky3TqG5APiGu4ryitzf-68" target="Zky3TqG5APiGu4ryitzf-66" edge="1">
          <mxGeometry relative="1" as="geometry">
            <Array as="points">
              <mxPoint x="1300" y="165"/>
              <mxPoint x="1300" y="20"/>
            </Array>
          </mxGeometry>
        </mxCell>
        <mxCell id="Zky3TqG5APiGu4ryitzf-68" value="" style="shape=mxgraph.bpmn.shape;html=1;verticalLabelPosition=bottom;labelBackgroundColor=#ffffff;verticalAlign=top;align=center;perimeter=rhombusPerimeter;background=gateway;outlineConnect=0;outline=none;symbol=parallelGw;" parent="1" vertex="1">
          <mxGeometry x="1110" y="140" width="50" height="50" as="geometry"/>
        </mxCell>
        <mxCell id="Zky3TqG5APiGu4ryitzf-71" value="" style="endArrow=classic;html=1;dashed=1;strokeColor=#000000;strokeWidth=3;exitX=0.5;exitY=1;exitDx=0;exitDy=0;" parent="1" source="Zky3TqG5APiGu4ryitzf-68" edge="1">
          <mxGeometry width="50" height="50" relative="1" as="geometry">
            <mxPoint x="1100" y="270" as="sourcePoint"/>
            <mxPoint x="1135" y="240" as="targetPoint"/>
          </mxGeometry>
        </mxCell>
        <mxCell id="Zky3TqG5APiGu4ryitzf-72" value="" style="endArrow=classic;html=1;dashed=1;strokeColor=#000000;strokeWidth=3;exitX=0.5;exitY=0;exitDx=0;exitDy=0;" parent="1" source="Zky3TqG5APiGu4ryitzf-68" edge="1">
          <mxGeometry width="50" height="50" relative="1" as="geometry">
            <mxPoint x="1145" y="200" as="sourcePoint"/>
            <mxPoint x="1135" y="90" as="targetPoint"/>
          </mxGeometry>
        </mxCell>
        <mxCell id="Zky3TqG5APiGu4ryitzf-80" style="edgeStyle=orthogonalEdgeStyle;rounded=0;orthogonalLoop=1;jettySize=auto;html=1;exitX=0;exitY=0.75;exitDx=0;exitDy=0;entryX=0.75;entryY=0;entryDx=0;entryDy=0;strokeColor=#7700CC;strokeWidth=3;fillColor=#aa00ff;" parent="1" source="Zky3TqG5APiGu4ryitzf-77" target="Zky3TqG5APiGu4ryitzf-79" edge="1">
          <mxGeometry relative="1" as="geometry">
            <Array as="points">
              <mxPoint x="1530" y="60"/>
              <mxPoint x="1530" y="440"/>
              <mxPoint x="1210" y="440"/>
            </Array>
          </mxGeometry>
        </mxCell>
        <mxCell id="Zky3TqG5APiGu4ryitzf-82" style="edgeStyle=orthogonalEdgeStyle;rounded=0;orthogonalLoop=1;jettySize=auto;html=1;exitX=1;exitY=0.25;exitDx=0;exitDy=0;entryX=0;entryY=0.25;entryDx=0;entryDy=0;strokeColor=#82b366;strokeWidth=3;gradientColor=#97d077;fillColor=#d5e8d4;" parent="1" source="Zky3TqG5APiGu4ryitzf-77" target="Zky3TqG5APiGu4ryitzf-81" edge="1">
          <mxGeometry relative="1" as="geometry"/>
        </mxCell>
        <mxCell id="Zky3TqG5APiGu4ryitzf-83" value="分案" style="text;html=1;align=center;verticalAlign=middle;resizable=0;points=[];labelBackgroundColor=#ffffff;" parent="Zky3TqG5APiGu4ryitzf-82" vertex="1" connectable="0">
          <mxGeometry x="-0.25" y="-1" relative="1" as="geometry">
            <mxPoint as="offset"/>
          </mxGeometry>
        </mxCell>
        <mxCell id="Zky3TqG5APiGu4ryitzf-84" style="edgeStyle=orthogonalEdgeStyle;rounded=0;orthogonalLoop=1;jettySize=auto;html=1;entryX=0;entryY=0.5;entryDx=0;entryDy=0;strokeColor=#82b366;strokeWidth=3;gradientColor=#97d077;fillColor=#d5e8d4;" parent="1" source="Zky3TqG5APiGu4ryitzf-77" target="Zky3TqG5APiGu4ryitzf-81" edge="1">
          <mxGeometry relative="1" as="geometry"/>
        </mxCell>
        <mxCell id="Zky3TqG5APiGu4ryitzf-85" style="edgeStyle=orthogonalEdgeStyle;rounded=0;orthogonalLoop=1;jettySize=auto;html=1;exitX=0.25;exitY=1;exitDx=0;exitDy=0;strokeColor=#9999FF;strokeWidth=3;entryX=0.75;entryY=0;entryDx=0;entryDy=0;" parent="1" source="Zky3TqG5APiGu4ryitzf-77" target="Zky3TqG5APiGu4ryitzf-45" edge="1">
          <mxGeometry relative="1" as="geometry">
            <mxPoint x="1290" y="400" as="targetPoint"/>
            <Array as="points">
              <mxPoint x="1590" y="390"/>
              <mxPoint x="810" y="390"/>
            </Array>
          </mxGeometry>
        </mxCell>
        <mxCell id="Zky3TqG5APiGu4ryitzf-77" value="allot_case 分案" style="shape=ext;rounded=1;html=1;whiteSpace=wrap;" parent="1" vertex="1">
          <mxGeometry x="1560" width="120" height="80" as="geometry"/>
        </mxCell>
        <mxCell id="Zky3TqG5APiGu4ryitzf-79" value="conciliate 调解" style="shape=ext;rounded=1;html=1;whiteSpace=wrap;" parent="1" vertex="1">
          <mxGeometry x="1120" y="480" width="120" height="80" as="geometry"/>
        </mxCell>
        <mxCell id="Zky3TqG5APiGu4ryitzf-88" style="edgeStyle=orthogonalEdgeStyle;rounded=0;orthogonalLoop=1;jettySize=auto;html=1;exitX=0.25;exitY=1;exitDx=0;exitDy=0;strokeColor=#000000;strokeWidth=3;dashed=1;dashPattern=1 1;" parent="1" source="Zky3TqG5APiGu4ryitzf-81" target="Zky3TqG5APiGu4ryitzf-87" edge="1">
          <mxGeometry relative="1" as="geometry"/>
        </mxCell>
        <mxCell id="Zky3TqG5APiGu4ryitzf-97" style="edgeStyle=orthogonalEdgeStyle;rounded=0;orthogonalLoop=1;jettySize=auto;html=1;entryX=0;entryY=0.5;entryDx=0;entryDy=0;dashed=1;strokeColor=#82b366;strokeWidth=3;gradientColor=#97d077;fillColor=#d5e8d4;exitX=0.5;exitY=1;exitDx=0;exitDy=0;" parent="1" source="Zky3TqG5APiGu4ryitzf-81" target="Zky3TqG5APiGu4ryitzf-96" edge="1">
          <mxGeometry relative="1" as="geometry">
            <Array as="points">
              <mxPoint x="1860" y="265"/>
            </Array>
          </mxGeometry>
        </mxCell>
        <mxCell id="Zky3TqG5APiGu4ryitzf-99" value="跳过" style="text;html=1;align=center;verticalAlign=middle;resizable=0;points=[];labelBackgroundColor=#ffffff;" parent="Zky3TqG5APiGu4ryitzf-97" vertex="1" connectable="0">
          <mxGeometry x="-0.0531" y="-3" relative="1" as="geometry">
            <mxPoint as="offset"/>
          </mxGeometry>
        </mxCell>
        <mxCell id="Zky3TqG5APiGu4ryitzf-100" value="结束举证" style="edgeStyle=orthogonalEdgeStyle;rounded=0;orthogonalLoop=1;jettySize=auto;html=1;exitX=0.75;exitY=1;exitDx=0;exitDy=0;dashed=1;strokeColor=#82b366;strokeWidth=3;gradientColor=#97d077;fillColor=#d5e8d4;" parent="1" source="Zky3TqG5APiGu4ryitzf-81" target="Zky3TqG5APiGu4ryitzf-96" edge="1">
          <mxGeometry relative="1" as="geometry">
            <Array as="points">
              <mxPoint x="1890" y="220"/>
              <mxPoint x="1955" y="220"/>
            </Array>
          </mxGeometry>
        </mxCell>
        <mxCell id="Zky3TqG5APiGu4ryitzf-103" style="edgeStyle=orthogonalEdgeStyle;rounded=0;orthogonalLoop=1;jettySize=auto;html=1;exitX=0;exitY=0.75;exitDx=0;exitDy=0;strokeColor=#9999FF;strokeWidth=3;entryX=1;entryY=0.25;entryDx=0;entryDy=0;" parent="1" source="Zky3TqG5APiGu4ryitzf-81" target="Zky3TqG5APiGu4ryitzf-45" edge="1">
          <mxGeometry relative="1" as="geometry">
            <mxPoint x="1190" y="450" as="targetPoint"/>
            <Array as="points">
              <mxPoint x="1720" y="60"/>
              <mxPoint x="1720" y="110"/>
              <mxPoint x="1230" y="110"/>
              <mxPoint x="1230" y="450"/>
              <mxPoint x="860" y="450"/>
              <mxPoint x="860" y="510"/>
            </Array>
          </mxGeometry>
        </mxCell>
        <mxCell id="Zky3TqG5APiGu4ryitzf-105" style="edgeStyle=orthogonalEdgeStyle;rounded=0;orthogonalLoop=1;jettySize=auto;html=1;exitX=0;exitY=1;exitDx=0;exitDy=0;entryX=0.5;entryY=0;entryDx=0;entryDy=0;strokeColor=#7700CC;strokeWidth=3;" parent="1" source="Zky3TqG5APiGu4ryitzf-81" target="Zky3TqG5APiGu4ryitzf-79" edge="1">
          <mxGeometry relative="1" as="geometry">
            <Array as="points">
              <mxPoint x="1740" y="80"/>
              <mxPoint x="1740" y="420"/>
              <mxPoint x="1180" y="420"/>
            </Array>
          </mxGeometry>
        </mxCell>
        <mxCell id="Zky3TqG5APiGu4ryitzf-106" style="edgeStyle=orthogonalEdgeStyle;rounded=0;orthogonalLoop=1;jettySize=auto;html=1;exitX=0.5;exitY=0;exitDx=0;exitDy=0;entryX=0.75;entryY=0;entryDx=0;entryDy=0;strokeColor=#B85450;strokeWidth=3;" parent="1" source="Zky3TqG5APiGu4ryitzf-81" target="Zky3TqG5APiGu4ryitzf-77" edge="1">
          <mxGeometry relative="1" as="geometry"/>
        </mxCell>
        <mxCell id="Zky3TqG5APiGu4ryitzf-81" value="put_proof 举证" style="shape=ext;rounded=1;html=1;whiteSpace=wrap;" parent="1" vertex="1">
          <mxGeometry x="1800" width="120" height="80" as="geometry"/>
        </mxCell>
        <mxCell id="Zky3TqG5APiGu4ryitzf-86" value="" style="endArrow=classic;html=1;dashed=1;strokeColor=#000000;strokeWidth=3;exitX=0.25;exitY=0;exitDx=0;exitDy=0;" parent="1" source="Zky3TqG5APiGu4ryitzf-77" edge="1">
          <mxGeometry width="50" height="50" relative="1" as="geometry">
            <mxPoint x="1145" y="150" as="sourcePoint"/>
            <mxPoint x="1590" y="-60" as="targetPoint"/>
          </mxGeometry>
        </mxCell>
        <mxCell id="Zky3TqG5APiGu4ryitzf-90" style="edgeStyle=orthogonalEdgeStyle;rounded=0;orthogonalLoop=1;jettySize=auto;html=1;entryX=0;entryY=0.5;entryDx=0;entryDy=0;strokeColor=#000000;strokeWidth=3;dashed=1;dashPattern=1 1;" parent="1" source="Zky3TqG5APiGu4ryitzf-87" target="Zky3TqG5APiGu4ryitzf-89" edge="1">
          <mxGeometry relative="1" as="geometry"/>
        </mxCell>
        <mxCell id="Zky3TqG5APiGu4ryitzf-87" value="" style="shape=mxgraph.bpmn.shape;html=1;verticalLabelPosition=bottom;labelBackgroundColor=#ffffff;verticalAlign=top;align=center;perimeter=ellipsePerimeter;outlineConnect=0;outline=standard;symbol=timer;" parent="1" vertex="1">
          <mxGeometry x="1750" y="140" width="50" height="50" as="geometry"/>
        </mxCell>
        <mxCell id="Zky3TqG5APiGu4ryitzf-93" style="edgeStyle=orthogonalEdgeStyle;rounded=0;orthogonalLoop=1;jettySize=auto;html=1;entryX=0;entryY=0.75;entryDx=0;entryDy=0;strokeColor=#6C8EBF;strokeWidth=3;exitX=0.5;exitY=0;exitDx=0;exitDy=0;dashed=1;" parent="1" source="Zky3TqG5APiGu4ryitzf-89" target="Zky3TqG5APiGu4ryitzf-91" edge="1">
          <mxGeometry relative="1" as="geometry">
            <Array as="points">
              <mxPoint x="1955" y="120"/>
              <mxPoint x="2000" y="120"/>
              <mxPoint x="2000" y="60"/>
            </Array>
          </mxGeometry>
        </mxCell>
        <mxCell id="Zky3TqG5APiGu4ryitzf-94" style="edgeStyle=orthogonalEdgeStyle;rounded=0;orthogonalLoop=1;jettySize=auto;html=1;entryX=0;entryY=0.75;entryDx=0;entryDy=0;strokeColor=#6C8EBF;strokeWidth=3;exitX=1;exitY=0.5;exitDx=0;exitDy=0;dashed=1;" parent="1" source="Zky3TqG5APiGu4ryitzf-89" target="Zky3TqG5APiGu4ryitzf-92" edge="1">
          <mxGeometry relative="1" as="geometry">
            <Array as="points">
              <mxPoint x="2230" y="165"/>
              <mxPoint x="2230" y="60"/>
            </Array>
          </mxGeometry>
        </mxCell>
        <mxCell id="Zky3TqG5APiGu4ryitzf-89" value="" style="shape=mxgraph.bpmn.shape;html=1;verticalLabelPosition=bottom;labelBackgroundColor=#ffffff;verticalAlign=top;align=center;perimeter=rhombusPerimeter;background=gateway;outlineConnect=0;outline=none;symbol=exclusiveGw;" parent="1" vertex="1">
          <mxGeometry x="1930" y="140" width="50" height="50" as="geometry"/>
        </mxCell>
        <mxCell id="Zky3TqG5APiGu4ryitzf-110" style="edgeStyle=orthogonalEdgeStyle;rounded=0;orthogonalLoop=1;jettySize=auto;html=1;entryX=0.5;entryY=0;entryDx=0;entryDy=0;strokeColor=#000000;strokeWidth=3;dashed=1;dashPattern=1 1;exitX=0.75;exitY=1;exitDx=0;exitDy=0;" parent="1" source="Zky3TqG5APiGu4ryitzf-91" target="Zky3TqG5APiGu4ryitzf-109" edge="1">
          <mxGeometry relative="1" as="geometry">
            <Array as="points">
              <mxPoint x="2130" y="140"/>
              <mxPoint x="2145" y="140"/>
            </Array>
          </mxGeometry>
        </mxCell>
        <mxCell id="Zky3TqG5APiGu4ryitzf-113" style="edgeStyle=orthogonalEdgeStyle;rounded=0;orthogonalLoop=1;jettySize=auto;html=1;exitX=0.75;exitY=0;exitDx=0;exitDy=0;strokeColor=#82b366;strokeWidth=3;gradientColor=#97d077;fillColor=#d5e8d4;entryX=0;entryY=0;entryDx=0;entryDy=0;" parent="1" source="Zky3TqG5APiGu4ryitzf-91" target="Zky3TqG5APiGu4ryitzf-92" edge="1">
          <mxGeometry relative="1" as="geometry">
            <mxPoint x="2310" y="-10" as="targetPoint"/>
            <Array as="points">
              <mxPoint x="2130" y="-30"/>
              <mxPoint x="2280" y="-30"/>
            </Array>
          </mxGeometry>
        </mxCell>
        <mxCell id="Zky3TqG5APiGu4ryitzf-114" style="edgeStyle=orthogonalEdgeStyle;rounded=0;orthogonalLoop=1;jettySize=auto;html=1;exitX=1;exitY=0.25;exitDx=0;exitDy=0;entryX=0;entryY=0.25;entryDx=0;entryDy=0;strokeColor=#82b366;strokeWidth=3;gradientColor=#97d077;fillColor=#d5e8d4;" parent="1" source="Zky3TqG5APiGu4ryitzf-91" target="Zky3TqG5APiGu4ryitzf-92" edge="1">
          <mxGeometry relative="1" as="geometry"/>
        </mxCell>
        <mxCell id="Zky3TqG5APiGu4ryitzf-115" style="edgeStyle=orthogonalEdgeStyle;rounded=0;orthogonalLoop=1;jettySize=auto;html=1;exitX=0;exitY=0.5;exitDx=0;exitDy=0;entryX=1;entryY=0.5;entryDx=0;entryDy=0;strokeColor=#B85450;strokeWidth=3;" parent="1" source="Zky3TqG5APiGu4ryitzf-91" target="Zky3TqG5APiGu4ryitzf-81" edge="1">
          <mxGeometry relative="1" as="geometry"/>
        </mxCell>
        <mxCell id="Zky3TqG5APiGu4ryitzf-116" style="edgeStyle=orthogonalEdgeStyle;rounded=0;orthogonalLoop=1;jettySize=auto;html=1;exitX=0;exitY=0.25;exitDx=0;exitDy=0;entryX=1;entryY=0.25;entryDx=0;entryDy=0;strokeColor=#B85450;strokeWidth=3;" parent="1" source="Zky3TqG5APiGu4ryitzf-91" target="Zky3TqG5APiGu4ryitzf-81" edge="1">
          <mxGeometry relative="1" as="geometry"/>
        </mxCell>
        <mxCell id="Zky3TqG5APiGu4ryitzf-117" style="edgeStyle=orthogonalEdgeStyle;rounded=0;orthogonalLoop=1;jettySize=auto;html=1;exitX=0;exitY=0;exitDx=0;exitDy=0;entryX=1;entryY=0;entryDx=0;entryDy=0;strokeColor=#B85450;strokeWidth=3;" parent="1" source="Zky3TqG5APiGu4ryitzf-91" target="Zky3TqG5APiGu4ryitzf-81" edge="1">
          <mxGeometry relative="1" as="geometry"/>
        </mxCell>
        <mxCell id="Zky3TqG5APiGu4ryitzf-118" style="edgeStyle=orthogonalEdgeStyle;rounded=0;orthogonalLoop=1;jettySize=auto;html=1;exitX=0;exitY=1;exitDx=0;exitDy=0;strokeColor=#9999FF;strokeWidth=3;entryX=1;entryY=0.5;entryDx=0;entryDy=0;" parent="1" source="Zky3TqG5APiGu4ryitzf-91" target="Zky3TqG5APiGu4ryitzf-45" edge="1">
          <mxGeometry relative="1" as="geometry">
            <mxPoint x="1080" y="440" as="targetPoint"/>
            <Array as="points">
              <mxPoint x="2010" y="80"/>
              <mxPoint x="2010" y="460"/>
              <mxPoint x="880" y="460"/>
              <mxPoint x="880" y="530"/>
            </Array>
          </mxGeometry>
        </mxCell>
        <mxCell id="Zky3TqG5APiGu4ryitzf-119" style="edgeStyle=orthogonalEdgeStyle;rounded=0;orthogonalLoop=1;jettySize=auto;html=1;exitX=0.5;exitY=1;exitDx=0;exitDy=0;strokeColor=#7700CC;strokeWidth=3;entryX=0.25;entryY=0;entryDx=0;entryDy=0;" parent="1" source="Zky3TqG5APiGu4ryitzf-91" target="Zky3TqG5APiGu4ryitzf-79" edge="1">
          <mxGeometry relative="1" as="geometry">
            <mxPoint x="1490" y="440" as="targetPoint"/>
            <Array as="points">
              <mxPoint x="2100" y="360"/>
              <mxPoint x="1150" y="360"/>
            </Array>
          </mxGeometry>
        </mxCell>
        <mxCell id="Zky3TqG5APiGu4ryitzf-91" value="oppugn_proof 质证" style="shape=ext;rounded=1;html=1;whiteSpace=wrap;" parent="1" vertex="1">
          <mxGeometry x="2040" width="120" height="80" as="geometry"/>
        </mxCell>
        <mxCell id="Zky3TqG5APiGu4ryitzf-121" style="edgeStyle=orthogonalEdgeStyle;rounded=0;orthogonalLoop=1;jettySize=auto;html=1;exitX=1;exitY=0.5;exitDx=0;exitDy=0;entryX=0;entryY=0.75;entryDx=0;entryDy=0;strokeColor=#82b366;strokeWidth=3;fillColor=#d5e8d4;" parent="1" source="Zky3TqG5APiGu4ryitzf-92" target="Zky3TqG5APiGu4ryitzf-120" edge="1">
          <mxGeometry relative="1" as="geometry">
            <Array as="points">
              <mxPoint x="2450" y="40"/>
              <mxPoint x="2450" y="100"/>
              <mxPoint x="2700" y="100"/>
              <mxPoint x="2700" y="60"/>
            </Array>
          </mxGeometry>
        </mxCell>
        <mxCell id="Zky3TqG5APiGu4ryitzf-122" style="edgeStyle=orthogonalEdgeStyle;rounded=0;orthogonalLoop=1;jettySize=auto;html=1;exitX=0.5;exitY=0;exitDx=0;exitDy=0;strokeColor=#B85450;strokeWidth=3;entryX=0.5;entryY=0;entryDx=0;entryDy=0;" parent="1" source="Zky3TqG5APiGu4ryitzf-91" target="Zky3TqG5APiGu4ryitzf-77" edge="1">
          <mxGeometry relative="1" as="geometry">
            <mxPoint x="1790" y="-92" as="targetPoint"/>
            <Array as="points">
              <mxPoint x="2100" y="-40"/>
              <mxPoint x="1620" y="-40"/>
            </Array>
          </mxGeometry>
        </mxCell>
        <mxCell id="Zky3TqG5APiGu4ryitzf-124" style="edgeStyle=orthogonalEdgeStyle;rounded=0;orthogonalLoop=1;jettySize=auto;html=1;exitX=0;exitY=1;exitDx=0;exitDy=0;strokeColor=#9999FF;strokeWidth=3;entryX=1;entryY=0.75;entryDx=0;entryDy=0;" parent="1" source="Zky3TqG5APiGu4ryitzf-92" target="Zky3TqG5APiGu4ryitzf-45" edge="1">
          <mxGeometry relative="1" as="geometry">
            <mxPoint x="1050" y="530" as="targetPoint"/>
            <Array as="points">
              <mxPoint x="2280" y="340"/>
              <mxPoint x="990" y="340"/>
              <mxPoint x="990" y="550"/>
            </Array>
          </mxGeometry>
        </mxCell>
        <mxCell id="Zky3TqG5APiGu4ryitzf-125" style="edgeStyle=orthogonalEdgeStyle;rounded=0;orthogonalLoop=1;jettySize=auto;html=1;exitX=0.5;exitY=0;exitDx=0;exitDy=0;strokeColor=#B85450;strokeWidth=3;entryX=0;entryY=0;entryDx=0;entryDy=0;" parent="1" source="Zky3TqG5APiGu4ryitzf-92" target="Zky3TqG5APiGu4ryitzf-77" edge="1">
          <mxGeometry relative="1" as="geometry">
            <mxPoint x="1950" y="-30" as="targetPoint"/>
            <Array as="points">
              <mxPoint x="2340" y="-60"/>
              <mxPoint x="1560" y="-60"/>
            </Array>
          </mxGeometry>
        </mxCell>
        <mxCell id="Zky3TqG5APiGu4ryitzf-128" style="edgeStyle=orthogonalEdgeStyle;rounded=0;orthogonalLoop=1;jettySize=auto;html=1;strokeColor=#000000;strokeWidth=3;dashed=1;dashPattern=1 1;exitX=0.75;exitY=1;exitDx=0;exitDy=0;" parent="1" source="Zky3TqG5APiGu4ryitzf-92" target="Zky3TqG5APiGu4ryitzf-127" edge="1">
          <mxGeometry relative="1" as="geometry"/>
        </mxCell>
        <mxCell id="Zky3TqG5APiGu4ryitzf-136" value="庭审排期" style="text;html=1;align=center;verticalAlign=middle;resizable=0;points=[];labelBackgroundColor=#ffffff;" parent="Zky3TqG5APiGu4ryitzf-128" vertex="1" connectable="0">
          <mxGeometry x="-0.4057" y="23" relative="1" as="geometry">
            <mxPoint as="offset"/>
          </mxGeometry>
        </mxCell>
        <mxCell id="Zky3TqG5APiGu4ryitzf-137" style="edgeStyle=orthogonalEdgeStyle;rounded=0;orthogonalLoop=1;jettySize=auto;html=1;strokeColor=#7700CC;strokeWidth=3;entryX=1;entryY=0;entryDx=0;entryDy=0;" parent="1" source="Zky3TqG5APiGu4ryitzf-92" target="Zky3TqG5APiGu4ryitzf-79" edge="1">
          <mxGeometry relative="1" as="geometry">
            <mxPoint x="1830" y="451" as="targetPoint"/>
            <Array as="points">
              <mxPoint x="2340" y="320"/>
              <mxPoint x="1240" y="320"/>
            </Array>
          </mxGeometry>
        </mxCell>
        <mxCell id="Zky3TqG5APiGu4ryitzf-138" style="edgeStyle=orthogonalEdgeStyle;rounded=0;orthogonalLoop=1;jettySize=auto;html=1;exitX=0.75;exitY=0;exitDx=0;exitDy=0;strokeColor=#B85450;strokeWidth=3;entryX=0.75;entryY=0;entryDx=0;entryDy=0;" parent="1" source="Zky3TqG5APiGu4ryitzf-92" target="Zky3TqG5APiGu4ryitzf-81" edge="1">
          <mxGeometry relative="1" as="geometry">
            <mxPoint x="1890" y="-100" as="targetPoint"/>
            <Array as="points">
              <mxPoint x="2370" y="-80"/>
              <mxPoint x="1890" y="-80"/>
            </Array>
          </mxGeometry>
        </mxCell>
        <mxCell id="ZPvQl_ccsSUfsWYSOPtk-2" style="edgeStyle=orthogonalEdgeStyle;rounded=0;orthogonalLoop=1;jettySize=auto;html=1;exitX=1;exitY=0.75;exitDx=0;exitDy=0;strokeWidth=3;dashed=1;fillColor=#d5e8d4;strokeColor=#82b366;entryX=0.5;entryY=0;entryDx=0;entryDy=0;" edge="1" parent="1" source="Zky3TqG5APiGu4ryitzf-92" target="ZPvQl_ccsSUfsWYSOPtk-1">
          <mxGeometry relative="1" as="geometry">
            <Array as="points">
              <mxPoint x="2440" y="60"/>
              <mxPoint x="2440" y="280"/>
              <mxPoint x="2255" y="280"/>
            </Array>
          </mxGeometry>
        </mxCell>
        <mxCell id="ZPvQl_ccsSUfsWYSOPtk-7" style="edgeStyle=orthogonalEdgeStyle;rounded=0;orthogonalLoop=1;jettySize=auto;html=1;exitX=1;exitY=1;exitDx=0;exitDy=0;entryX=1;entryY=0.5;entryDx=0;entryDy=0;dashed=1;strokeColor=#82b366;strokeWidth=3;fillColor=#d5e8d4;" edge="1" parent="1" source="Zky3TqG5APiGu4ryitzf-92" target="ZPvQl_ccsSUfsWYSOPtk-1">
          <mxGeometry relative="1" as="geometry">
            <Array as="points">
              <mxPoint x="2440" y="80"/>
              <mxPoint x="2440" y="405"/>
            </Array>
          </mxGeometry>
        </mxCell>
        <mxCell id="Zky3TqG5APiGu4ryitzf-92" value="wait_trial 等待庭审" style="shape=ext;rounded=1;html=1;whiteSpace=wrap;" parent="1" vertex="1">
          <mxGeometry x="2280" width="120" height="80" as="geometry"/>
        </mxCell>
        <mxCell id="Zky3TqG5APiGu4ryitzf-95" value="" style="endArrow=classic;html=1;dashed=1;strokeColor=#000000;strokeWidth=3;exitX=0.25;exitY=0;exitDx=0;exitDy=0;" parent="1" edge="1">
          <mxGeometry width="50" height="50" relative="1" as="geometry">
            <mxPoint x="1830" as="sourcePoint"/>
            <mxPoint x="1830" y="-60" as="targetPoint"/>
          </mxGeometry>
        </mxCell>
        <mxCell id="Zky3TqG5APiGu4ryitzf-98" style="edgeStyle=orthogonalEdgeStyle;rounded=0;orthogonalLoop=1;jettySize=auto;html=1;entryX=0.25;entryY=1;entryDx=0;entryDy=0;dashed=1;strokeColor=#6C8EBF;strokeWidth=3;" parent="1" source="Zky3TqG5APiGu4ryitzf-96" target="Zky3TqG5APiGu4ryitzf-91" edge="1">
          <mxGeometry relative="1" as="geometry"/>
        </mxCell>
        <mxCell id="Zky3TqG5APiGu4ryitzf-101" style="edgeStyle=orthogonalEdgeStyle;rounded=0;orthogonalLoop=1;jettySize=auto;html=1;entryX=0.25;entryY=1;entryDx=0;entryDy=0;dashed=1;strokeColor=#6C8EBF;strokeWidth=3;" parent="1" source="Zky3TqG5APiGu4ryitzf-96" target="Zky3TqG5APiGu4ryitzf-92" edge="1">
          <mxGeometry relative="1" as="geometry">
            <Array as="points">
              <mxPoint x="1955" y="310"/>
              <mxPoint x="2310" y="310"/>
            </Array>
          </mxGeometry>
        </mxCell>
        <mxCell id="Zky3TqG5APiGu4ryitzf-96" value="" style="shape=mxgraph.bpmn.shape;html=1;verticalLabelPosition=bottom;labelBackgroundColor=#ffffff;verticalAlign=top;align=center;perimeter=rhombusPerimeter;background=gateway;outlineConnect=0;outline=none;symbol=exclusiveGw;" parent="1" vertex="1">
          <mxGeometry x="1930" y="240" width="50" height="50" as="geometry"/>
        </mxCell>
        <mxCell id="Zky3TqG5APiGu4ryitzf-111" style="edgeStyle=orthogonalEdgeStyle;rounded=0;orthogonalLoop=1;jettySize=auto;html=1;entryX=0;entryY=0.5;entryDx=0;entryDy=0;strokeColor=#82b366;strokeWidth=3;gradientColor=#97d077;fillColor=#d5e8d4;" parent="1" source="Zky3TqG5APiGu4ryitzf-109" target="Zky3TqG5APiGu4ryitzf-92" edge="1">
          <mxGeometry relative="1" as="geometry">
            <Array as="points">
              <mxPoint x="2240" y="225"/>
              <mxPoint x="2240" y="40"/>
            </Array>
          </mxGeometry>
        </mxCell>
        <mxCell id="Zky3TqG5APiGu4ryitzf-109" value="" style="shape=mxgraph.bpmn.shape;html=1;verticalLabelPosition=bottom;labelBackgroundColor=#ffffff;verticalAlign=top;align=center;perimeter=ellipsePerimeter;outlineConnect=0;outline=standard;symbol=timer;" parent="1" vertex="1">
          <mxGeometry x="2120" y="200" width="50" height="50" as="geometry"/>
        </mxCell>
        <mxCell id="Zky3TqG5APiGu4ryitzf-112" value="" style="endArrow=classic;html=1;dashed=1;strokeColor=#000000;strokeWidth=3;exitX=0.25;exitY=0;exitDx=0;exitDy=0;" parent="1" edge="1">
          <mxGeometry width="50" height="50" relative="1" as="geometry">
            <mxPoint x="2067" as="sourcePoint"/>
            <mxPoint x="2067" y="-60" as="targetPoint"/>
          </mxGeometry>
        </mxCell>
        <mxCell id="Zky3TqG5APiGu4ryitzf-120" value="wait_decision 结束审理" style="shape=ext;rounded=1;html=1;whiteSpace=wrap;" parent="1" vertex="1">
          <mxGeometry x="2730" width="120" height="80" as="geometry"/>
        </mxCell>
        <mxCell id="Zky3TqG5APiGu4ryitzf-123" value="" style="endArrow=classic;html=1;dashed=1;strokeColor=#000000;strokeWidth=3;exitX=0.25;exitY=0;exitDx=0;exitDy=0;" parent="1" edge="1">
          <mxGeometry width="50" height="50" relative="1" as="geometry">
            <mxPoint x="2310" as="sourcePoint"/>
            <mxPoint x="2310" y="-60" as="targetPoint"/>
          </mxGeometry>
        </mxCell>
        <mxCell id="Zky3TqG5APiGu4ryitzf-132" style="edgeStyle=orthogonalEdgeStyle;rounded=0;orthogonalLoop=1;jettySize=auto;html=1;entryX=0;entryY=0.5;entryDx=0;entryDy=0;dashed=1;dashPattern=1 1;strokeColor=#000000;strokeWidth=3;" parent="1" source="Zky3TqG5APiGu4ryitzf-127" target="Zky3TqG5APiGu4ryitzf-131" edge="1">
          <mxGeometry relative="1" as="geometry"/>
        </mxCell>
        <mxCell id="Zky3TqG5APiGu4ryitzf-127" value="" style="shape=mxgraph.bpmn.shape;html=1;verticalLabelPosition=bottom;labelBackgroundColor=#ffffff;verticalAlign=top;align=center;perimeter=ellipsePerimeter;outlineConnect=0;outline=standard;symbol=timer;" parent="1" vertex="1">
          <mxGeometry x="2380" y="190" width="50" height="50" as="geometry"/>
        </mxCell>
        <mxCell id="ZPvQl_ccsSUfsWYSOPtk-9" style="edgeStyle=orthogonalEdgeStyle;rounded=0;orthogonalLoop=1;jettySize=auto;html=1;exitX=1;exitY=0.5;exitDx=0;exitDy=0;entryX=0;entryY=0.5;entryDx=0;entryDy=0;strokeColor=#82b366;strokeWidth=3;fillColor=#d5e8d4;" edge="1" parent="1" source="Zky3TqG5APiGu4ryitzf-129" target="Zky3TqG5APiGu4ryitzf-120">
          <mxGeometry relative="1" as="geometry"/>
        </mxCell>
        <mxCell id="ZPvQl_ccsSUfsWYSOPtk-10" style="edgeStyle=orthogonalEdgeStyle;rounded=0;orthogonalLoop=1;jettySize=auto;html=1;exitX=0;exitY=0.75;exitDx=0;exitDy=0;entryX=1;entryY=0.25;entryDx=0;entryDy=0;strokeColor=#B85450;strokeWidth=3;" edge="1" parent="1" source="Zky3TqG5APiGu4ryitzf-129" target="Zky3TqG5APiGu4ryitzf-92">
          <mxGeometry relative="1" as="geometry"/>
        </mxCell>
        <mxCell id="ZPvQl_ccsSUfsWYSOPtk-11" style="edgeStyle=orthogonalEdgeStyle;rounded=0;orthogonalLoop=1;jettySize=auto;html=1;strokeColor=#9999FF;strokeWidth=3;entryX=1;entryY=1;entryDx=0;entryDy=0;" edge="1" parent="1" source="Zky3TqG5APiGu4ryitzf-129" target="Zky3TqG5APiGu4ryitzf-45">
          <mxGeometry relative="1" as="geometry">
            <mxPoint x="1070" y="510" as="targetPoint"/>
            <Array as="points">
              <mxPoint x="2580" y="480"/>
              <mxPoint x="1680" y="480"/>
              <mxPoint x="1680" y="590"/>
              <mxPoint x="840" y="590"/>
            </Array>
          </mxGeometry>
        </mxCell>
        <mxCell id="ZPvQl_ccsSUfsWYSOPtk-12" style="edgeStyle=orthogonalEdgeStyle;rounded=0;orthogonalLoop=1;jettySize=auto;html=1;exitX=0.75;exitY=1;exitDx=0;exitDy=0;strokeColor=#7700CC;strokeWidth=3;entryX=1;entryY=0.25;entryDx=0;entryDy=0;" edge="1" parent="1" source="Zky3TqG5APiGu4ryitzf-129" target="Zky3TqG5APiGu4ryitzf-79">
          <mxGeometry relative="1" as="geometry">
            <mxPoint x="1760" y="490" as="targetPoint"/>
          </mxGeometry>
        </mxCell>
        <mxCell id="ZPvQl_ccsSUfsWYSOPtk-13" style="edgeStyle=orthogonalEdgeStyle;rounded=0;orthogonalLoop=1;jettySize=auto;html=1;exitX=0;exitY=0;exitDx=0;exitDy=0;entryX=0;entryY=0;entryDx=0;entryDy=0;strokeColor=#B85450;strokeWidth=3;" edge="1" parent="1" source="Zky3TqG5APiGu4ryitzf-129" target="Zky3TqG5APiGu4ryitzf-81">
          <mxGeometry relative="1" as="geometry">
            <Array as="points">
              <mxPoint x="2520" y="-100"/>
              <mxPoint x="1800" y="-100"/>
            </Array>
          </mxGeometry>
        </mxCell>
        <mxCell id="ZPvQl_ccsSUfsWYSOPtk-15" style="edgeStyle=orthogonalEdgeStyle;rounded=0;orthogonalLoop=1;jettySize=auto;html=1;exitX=0;exitY=0.25;exitDx=0;exitDy=0;strokeColor=#82b366;strokeWidth=3;fillColor=#d5e8d4;dashed=1;" edge="1" parent="1" source="Zky3TqG5APiGu4ryitzf-129" target="ZPvQl_ccsSUfsWYSOPtk-14">
          <mxGeometry relative="1" as="geometry"/>
        </mxCell>
        <mxCell id="Zky3TqG5APiGu4ryitzf-129" value="trial_ing 庭审中" style="shape=ext;rounded=1;html=1;whiteSpace=wrap;" parent="1" vertex="1">
          <mxGeometry x="2520" width="120" height="80" as="geometry"/>
        </mxCell>
        <mxCell id="Zky3TqG5APiGu4ryitzf-133" style="edgeStyle=orthogonalEdgeStyle;rounded=0;orthogonalLoop=1;jettySize=auto;html=1;exitX=0.5;exitY=0;exitDx=0;exitDy=0;entryX=0.25;entryY=1;entryDx=0;entryDy=0;dashed=1;strokeColor=#6C8EBF;strokeWidth=3;gradientColor=#97d077;fillColor=#d5e8d4;" parent="1" source="Zky3TqG5APiGu4ryitzf-131" target="Zky3TqG5APiGu4ryitzf-129" edge="1">
          <mxGeometry relative="1" as="geometry">
            <Array as="points">
              <mxPoint x="2545" y="135"/>
              <mxPoint x="2550" y="135"/>
            </Array>
          </mxGeometry>
        </mxCell>
        <mxCell id="Zky3TqG5APiGu4ryitzf-131" value="" style="shape=mxgraph.bpmn.shape;html=1;verticalLabelPosition=bottom;labelBackgroundColor=#ffffff;verticalAlign=top;align=center;perimeter=rhombusPerimeter;background=gateway;outlineConnect=0;outline=end;symbol=general;" parent="1" vertex="1">
          <mxGeometry x="2520" y="190" width="50" height="50" as="geometry"/>
        </mxCell>
        <mxCell id="Zky3TqG5APiGu4ryitzf-134" value="" style="endArrow=classic;html=1;dashed=1;strokeColor=#000000;strokeWidth=3;entryX=0.25;entryY=0.25;entryDx=0;entryDy=0;entryPerimeter=0;" parent="1" target="Zky3TqG5APiGu4ryitzf-131" edge="1">
          <mxGeometry width="50" height="50" relative="1" as="geometry">
            <mxPoint x="2490" y="170" as="sourcePoint"/>
            <mxPoint x="2481" y="135" as="targetPoint"/>
          </mxGeometry>
        </mxCell>
        <mxCell id="Zky3TqG5APiGu4ryitzf-135" value="" style="endArrow=classic;html=1;dashed=1;strokeColor=#000000;strokeWidth=3;entryX=0.25;entryY=0.75;entryDx=0;entryDy=0;entryPerimeter=0;" parent="1" target="Zky3TqG5APiGu4ryitzf-131" edge="1">
          <mxGeometry width="50" height="50" relative="1" as="geometry">
            <mxPoint x="2500" y="270" as="sourcePoint"/>
            <mxPoint x="2530" y="230" as="targetPoint"/>
          </mxGeometry>
        </mxCell>
        <mxCell id="ZPvQl_ccsSUfsWYSOPtk-19" value="送达" style="text;html=1;align=center;verticalAlign=middle;resizable=0;points=[];labelBackgroundColor=#ffffff;" vertex="1" connectable="0" parent="Zky3TqG5APiGu4ryitzf-135">
          <mxGeometry x="-0.5074" y="3" relative="1" as="geometry">
            <mxPoint x="-5.51" y="22.15" as="offset"/>
          </mxGeometry>
        </mxCell>
        <mxCell id="ZPvQl_ccsSUfsWYSOPtk-3" style="edgeStyle=orthogonalEdgeStyle;rounded=0;orthogonalLoop=1;jettySize=auto;html=1;entryX=1;entryY=0.5;entryDx=0;entryDy=0;dashed=1;strokeWidth=3;strokeColor=#6C8EBF;" edge="1" parent="1" source="ZPvQl_ccsSUfsWYSOPtk-1" target="Zky3TqG5APiGu4ryitzf-91">
          <mxGeometry relative="1" as="geometry">
            <Array as="points">
              <mxPoint x="2210" y="405"/>
              <mxPoint x="2210" y="40"/>
            </Array>
          </mxGeometry>
        </mxCell>
        <mxCell id="ZPvQl_ccsSUfsWYSOPtk-4" style="edgeStyle=orthogonalEdgeStyle;rounded=0;orthogonalLoop=1;jettySize=auto;html=1;exitX=0.5;exitY=1;exitDx=0;exitDy=0;entryX=1;entryY=0.75;entryDx=0;entryDy=0;dashed=1;strokeColor=#6C8EBF;strokeWidth=3;" edge="1" parent="1" source="ZPvQl_ccsSUfsWYSOPtk-1" target="Zky3TqG5APiGu4ryitzf-81">
          <mxGeometry relative="1" as="geometry">
            <Array as="points">
              <mxPoint x="2255" y="440"/>
              <mxPoint x="1990" y="440"/>
              <mxPoint x="1990" y="60"/>
            </Array>
          </mxGeometry>
        </mxCell>
        <mxCell id="ZPvQl_ccsSUfsWYSOPtk-1" value="" style="shape=mxgraph.bpmn.shape;html=1;verticalLabelPosition=bottom;labelBackgroundColor=#ffffff;verticalAlign=top;align=center;perimeter=rhombusPerimeter;background=gateway;outlineConnect=0;outline=none;symbol=exclusiveGw;" vertex="1" parent="1">
          <mxGeometry x="2230" y="380" width="50" height="50" as="geometry"/>
        </mxCell>
        <mxCell id="ZPvQl_ccsSUfsWYSOPtk-8" value="" style="endArrow=classic;html=1;dashed=1;strokeColor=#000000;strokeWidth=3;exitX=0.25;exitY=0;exitDx=0;exitDy=0;" edge="1" parent="1">
          <mxGeometry width="50" height="50" relative="1" as="geometry">
            <mxPoint x="2544.5" as="sourcePoint"/>
            <mxPoint x="2544.5" y="-60" as="targetPoint"/>
          </mxGeometry>
        </mxCell>
        <mxCell id="ZPvQl_ccsSUfsWYSOPtk-16" style="edgeStyle=orthogonalEdgeStyle;rounded=0;orthogonalLoop=1;jettySize=auto;html=1;exitX=0.5;exitY=0;exitDx=0;exitDy=0;entryX=1;entryY=0;entryDx=0;entryDy=0;dashed=1;strokeColor=#9999FF;strokeWidth=3;" edge="1" parent="1" source="ZPvQl_ccsSUfsWYSOPtk-14" target="Zky3TqG5APiGu4ryitzf-92">
          <mxGeometry relative="1" as="geometry"/>
        </mxCell>
        <mxCell id="ZPvQl_ccsSUfsWYSOPtk-17" style="edgeStyle=orthogonalEdgeStyle;rounded=0;orthogonalLoop=1;jettySize=auto;html=1;exitX=0;exitY=0.5;exitDx=0;exitDy=0;entryX=0.855;entryY=0.145;entryDx=0;entryDy=0;entryPerimeter=0;dashed=1;strokeColor=#9999FF;strokeWidth=3;" edge="1" parent="1" source="ZPvQl_ccsSUfsWYSOPtk-14" target="Zky3TqG5APiGu4ryitzf-127">
          <mxGeometry relative="1" as="geometry"/>
        </mxCell>
        <mxCell id="ZPvQl_ccsSUfsWYSOPtk-14" value="" style="shape=mxgraph.bpmn.shape;html=1;verticalLabelPosition=bottom;labelBackgroundColor=#ffffff;verticalAlign=top;align=center;perimeter=rhombusPerimeter;background=gateway;outlineConnect=0;outline=none;symbol=parallelGw;" vertex="1" parent="1">
          <mxGeometry x="2450" y="-70" width="50" height="50" as="geometry"/>
        </mxCell>
        <mxCell id="ZPvQl_ccsSUfsWYSOPtk-18" value="缴费" style="text;html=1;align=center;verticalAlign=middle;resizable=0;points=[];autosize=1;" vertex="1" parent="1">
          <mxGeometry x="2470" y="150" width="40" height="20" as="geometry"/>
        </mxCell>
      </root>
    </mxGraphModel>
  </diagram>
</mxfile>
